
<svg version="1.0" xmlns="http://www.w3.org/2000/svg"
 width="500.000000pt" height="500.000000pt" viewBox="0 0 500.000000 500.000000"
 preserveAspectRatio="xMidYMid meet">

<g transform="translate(0.000000,500.000000) scale(0.100000,-0.100000)"
fill="#000000" stroke="none">
<path fill="#a3e635" d="M2140 4584 c-476 -102 -863 -364 -1123 -759 -121 -184 -211 -400
-259 -621 -21 -98 -23 -134 -23 -349 1 -211 3 -253 23 -345 25 -114 89 -316
120 -376 l19 -37 6 114 c15 264 110 518 268 714 26 33 87 99 136 146 82 81
129 119 409 340 230 182 341 306 424 474 55 112 85 216 103 361 l12 99 56 22
c173 69 414 101 610 83 313 -29 574 -141 819 -349 l85 -73 -80 79 c-327 322
-796 470 -1265 402 -82 -12 -239 -52 -310 -80 -170 -65 -408 -214 -395 -247 3
-9 14 -66 22 -127 18 -123 9 -281 -23 -408 -20 -80 -30 -85 -12 -6 18 77 15
317 -5 404 -30 134 -19 134 -143 9 -121 -121 -197 -212 -302 -358 -66 -92 -69
-99 -61 -134 12 -52 9 -217 -4 -277 -11 -45 -12 -36 -12 97 0 92 -4 151 -11
158 -19 19 -162 -259 -238 -462 -20 -53 -36 -103 -36 -109 0 -7 -3 -10 -6 -6
-8 8 37 144 93 281 62 153 149 321 237 456 41 63 71 116 67 118 -14 5 -171
-56 -237 -93 -35 -19 -64 -33 -64 -31 0 11 156 100 261 150 106 51 119 60 165
118 154 197 450 452 701 603 65 39 64 39 -27 19z"/>
<path fill="#22c55e" d="M2935 4179 c-199 -27 -394 -101 -545 -207 -63 -44 -240 -208 -240
-223 0 -3 53 20 118 52 135 67 316 129 456 158 54 11 108 27 119 36 51 37 155
104 187 120 44 22 32 10 -50 -47 -36 -25 -74 -55 -84 -67 l-20 -22 40 5 c139
18 376 11 489 -14 l40 -9 -45 4 c-25 3 -106 8 -180 12 -129 6 -134 5 -120 -12
20 -24 86 -65 140 -86 25 -10 38 -18 30 -18 -26 -1 -123 43 -174 78 l-49 34
-110 -12 c-118 -13 -180 -25 -301 -61 l-77 -23 38 -39 c49 -50 113 -91 210
-135 52 -23 66 -32 43 -28 -59 12 -212 89 -273 139 l-59 48 -56 -23 c-76 -30
-165 -74 -236 -116 l-58 -36 48 -30 c67 -41 196 -92 272 -107 82 -17 236 -8
333 19 42 11 121 39 175 61 253 105 303 123 393 147 76 20 120 25 211 26 138
0 230 -19 343 -68 45 -20 89 -39 96 -42 55 -24 -160 199 -262 271 -130 92
-317 172 -472 201 -97 19 -284 26 -370 14z m548 -226 c-7 -2 -19 -2 -25 0 -7
3 -2 5 12 5 14 0 19 -2 13 -5z"/>
<path fill="#a3e635" d="M3400 3604 c-100 -20 -211 -56 -379 -126 -264 -109 -350 -131 -516
-132 -148 -1 -243 19 -372 79 -84 39 -84 37 13 -73 289 -326 776 -467 1207
-348 225 62 450 202 585 364 l42 50 -122 -63 c-138 -71 -313 -133 -466 -164
-87 -18 -112 -28 -155 -60 -54 -41 -153 -101 -165 -101 -4 0 11 12 34 28 22
15 60 44 83 64 l43 37 -149 -6 c-143 -5 -274 4 -411 28 -35 6 -61 13 -58 16 2
2 30 -1 63 -7 32 -6 126 -14 208 -17 l150 -6 -29 24 c-16 12 -56 38 -90 56
-34 18 -56 33 -49 33 22 0 107 -41 154 -75 l47 -34 119 15 c114 15 340 67 356
83 23 23 -174 158 -276 191 -59 19 -38 22 24 4 77 -23 156 -65 234 -124 55
-42 73 -50 94 -45 37 9 174 75 255 123 l69 40 -39 25 c-128 81 -242 117 -379
122 -55 2 -111 1 -125 -1z"/>
<path fill="#16a34a" d="M4100 3527 c0 -87 -33 -274 -66 -372 -60 -182 -153 -331 -299 -484
-93 -96 -148 -143 -456 -386 -264 -209 -402 -382 -473 -596 -27 -79 -56 -237
-56 -301 0 -21 -1 -38 -3 -38 -1 0 -48 -15 -102 -34 -159 -53 -267 -70 -445
-69 -181 1 -300 19 -446 68 -188 63 -364 165 -518 303 -28 24 -12 6 36 -41
190 -187 441 -316 734 -379 154 -33 399 -33 562 0 209 42 404 122 567 232 100
67 98 63 78 151 -30 138 -15 416 28 512 9 21 9 20 5 -3 -31 -161 -28 -335 10
-485 l16 -65 39 31 c91 72 293 305 394 454 54 79 54 80 44 125 -11 47 -6 224
8 272 5 17 8 -26 8 -112 0 -90 4 -143 11 -150 20 -20 120 167 220 410 57 139
56 111 -2 -43 -76 -200 -209 -453 -315 -601 -18 -24 -26 -42 -19 -44 16 -6
121 34 213 79 42 22 77 37 77 34 0 -11 -206 -125 -279 -154 -70 -29 -84 -39
-134 -100 -181 -220 -392 -406 -644 -567 -127 -81 -127 -81 49 -38 360 89 696
303 938 599 359 439 482 1036 328 1595 -24 87 -86 248 -99 256 -5 3 -9 -24 -9
-59z"/>
<path fill="#22c55e" d="M1725 2746 c-191 -31 -364 -101 -511 -205 -81 -57 -180 -146 -223
-200 l-29 -37 121 61 c138 69 325 134 469 163 80 17 105 27 150 60 62 47 151
102 164 102 5 0 -9 -12 -32 -28 -47 -31 -97 -72 -106 -87 -4 -7 61 -11 195
-12 111 0 225 -5 252 -10 38 -8 12 -9 -110 -6 l-160 5 25 -22 c14 -12 61 -39
104 -61 44 -21 75 -39 68 -39 -27 0 -124 43 -173 78 l-54 38 -108 -12 c-60 -7
-132 -18 -160 -24 -82 -18 -201 -53 -210 -60 -5 -4 17 -30 49 -58 48 -43 130
-90 244 -141 49 -22 -41 0 -102 24 -53 21 -160 88 -219 136 l-27 21 -88 -38
c-71 -30 -234 -114 -253 -131 -14 -11 129 -84 233 -119 41 -14 107 -27 157
-31 146 -10 262 19 534 132 259 109 403 142 562 131 101 -7 225 -39 318 -83
33 -15 64 -29 70 -32 19 -8 -61 86 -131 155 -156 154 -334 252 -563 311 -120
30 -334 39 -456 19z m548 -213 c-7 -2 -21 -2 -30 0 -10 3 -4 5 12 5 17 0 24
-2 18 -5z m50 -10 c-7 -2 -19 -2 -25 0 -7 3 -2 5 12 5 14 0 19 -2 13 -5z"/>
<path fill="#16a34a" d="M2270 2185 c-82 -17 -171 -48 -330 -115 -420 -177 -596 -183 -945
-34 -28 11 29 -60 114 -142 160 -155 334 -251 565 -311 90 -24 120 -27 271
-27 181 0 244 10 391 59 100 34 235 102 314 160 66 49 230 202 230 216 0 4
-47 -17 -103 -45 -153 -78 -378 -153 -537 -180 -20 -3 -61 -25 -92 -49 -56
-41 -158 -102 -158 -94 0 2 24 20 53 40 30 21 63 47 75 60 l21 22 -222 1
c-185 2 -237 5 -312 23 -87 20 -77 20 70 1 39 -5 115 -9 170 -9 l100 0 -30 25
c-16 13 -57 38 -89 54 -33 17 -53 30 -45 30 23 0 131 -55 166 -84 l31 -26 119
15 c112 15 325 64 360 83 30 17 -139 138 -267 189 -43 18 -47 22 -20 17 75
-14 190 -72 287 -146 l52 -40 48 16 c63 21 285 138 290 153 6 17 -213 120
-294 137 -86 19 -194 19 -283 1z"/>
<path fill='currentColor' d="M830 833 c-53 -20 -82 -89 -60 -144 15 -35 50 -56 111 -65 42 -6 79
-28 79 -46 0 -4 -9 -17 -20 -28 -31 -31 -109 -28 -149 6 l-31 26 0 -45 c0 -42
2 -46 31 -56 18 -6 56 -11 86 -11 93 0 143 41 143 116 0 35 -5 47 -30 68 -17
14 -47 28 -68 31 -75 12 -110 46 -82 80 16 19 61 19 107 0 46 -19 43 -20 43
19 0 29 -4 36 -31 45 -33 11 -103 14 -129 4z"/>
<path fill='currentColor' d="M1270 653 l0 -183 35 0 35 0 0 183 0 183 -35 0 -35 0 0 -183z"/>
<path fill='currentColor' d="M1600 656 l0 -186 35 0 35 0 0 49 0 48 41 7 c52 8 105 58 114 107 8
46 -14 107 -48 133 -21 15 -47 22 -103 24 l-74 4 0 -186z m140 104 c42 -42 10
-130 -47 -130 -22 0 -23 3 -23 75 0 73 1 75 25 75 14 0 34 -9 45 -20z"/>
<path fill='currentColor' d="M2050 653 l0 -183 35 0 35 0 0 80 0 80 65 0 65 0 0 -80 0 -80 35 0
35 0 0 183 0 184 -35 1 -35 1 0 -74 0 -75 -65 0 -65 0 0 74 0 74 -35 -1 -35
-1 0 -183z"/>
<path fill='currentColor' d="M2663 821 c-121 -55 -139 -246 -31 -323 28 -19 45 -23 109 -23 68 0
79 3 113 29 108 82 97 259 -20 316 -51 25 -117 25 -171 1z m154 -73 c51 -48
53 -148 4 -192 -29 -26 -91 -32 -130 -11 -84 43 -75 187 14 226 31 13 85 2
112 -23z"/>
<path fill='currentColor' d="M3167 833 c-4 -3 -7 -87 -7 -185 l0 -178 35 0 35 0 0 68 c0 38 2 71
5 74 3 3 16 3 29 1 17 -4 30 -21 52 -74 29 -68 30 -69 67 -69 20 0 37 2 37 5
0 2 -17 39 -37 80 l-37 75 22 15 c59 42 46 152 -22 180 -35 15 -167 21 -179 8z
m157 -69 c39 -38 6 -94 -56 -94 l-38 0 0 55 0 55 39 0 c23 0 46 -7 55 -16z"/>
<path fill='currentColor' d="M3660 653 l0 -183 35 0 35 0 0 183 0 182 -35 1 -35 1 0 -184z"/>
<path fill='currentColor' d="M4070 815 c-19 -51 -120 -336 -120 -340 0 -3 16 -5 35 -5 31 0 35 3
46 40 l12 40 67 0 67 0 12 -40 c11 -38 14 -40 51 -40 l39 0 -29 78 c-16 42
-46 124 -66 183 l-38 105 -34 0 c-25 0 -36 -5 -42 -21z m64 -139 c9 -27 16
-53 16 -58 0 -4 -18 -8 -40 -8 -22 0 -40 2 -40 5 0 22 35 124 40 118 4 -4 15
-30 24 -57z"/>
</g>
</svg>
