<svg xmlns="http://www.w3.org/2000/svg" viewBox="0 0 512 512" style=""><rect data-fl-background="" x="0" y="0" width="512" height="512" fill="transparent"></rect><g transform="matrix(0.75, 0, 0, 0.75, 2.1316282072803006e-14, 2.1316282072803006e-14)"><path d="m512 256c0 141.386719-114.613281 256-256 256s-256-114.613281-256-256 114.613281-256 256-256 256 114.613281 256 256zm0 0" fill="#fee7af" transform="matrix(1.3333333333333333, 0, 0, 1.3333333333333333, 0, 0)"></path><path d="m27.78125 372.09375c42.324219 83.035156 128.628906 139.90625 228.21875 139.90625s185.894531-56.871094 228.21875-139.90625zm0 0" fill="#7272b5" transform="matrix(1.3333333333333333, 0, 0, 1.3333333333333333, 0, 0)"></path><path d="m247.496094 372.09375h-219.714844c40.511719 79.476562 121.316406 134.976562 215.496094 139.589844-90.132813-4.640625-86.261719-139.589844 4.21875-139.589844zm0 0" fill="#5e5e99" transform="matrix(1.3333333333333333, 0, 0, 1.3333333333333333, 0, 0)"></path><path d="m84.519531 65.929688v74.632812c0 2.972656 2.414063 5.386719 5.386719 5.386719h140.511719c2.972656 0 5.386719-2.414063 5.386719-5.386719v-139.773438c-58.003907 4.527344-110.574219 28.386719-151.285157 65.140626zm0 0" fill="#2d86d9" transform="matrix(1.3333333333333333, 0, 0, 1.3333333333333333, 0, 0)"></path><path d="m116.394531 140.5625v-99.164062c-11.269531 7.347656-21.925781 15.550781-31.875 24.53125v74.632812c0 2.972656 2.414063 5.386719 5.386719 5.386719h31.875c-2.976562 0-5.386719-2.414063-5.386719-5.386719zm0 0" fill="#1569c7" transform="matrix(1.3333333333333333, 0, 0, 1.3333333333333333, 0, 0)"></path><path d="m269.179688.335938v45.675781c0 2.972656 2.410156 5.382812 5.386718 5.382812h135.304688c-39.554688-29.792969-88.019532-48.390625-140.691406-51.058593zm0 0" fill="#f4b147" transform="matrix(1.3333333333333333, 0, 0, 1.3333333333333333, 0, 0)"></path><path d="m325.988281 83.75h-51.421875c-2.976562 0-5.386718 2.414062-5.386718 5.386719v51.425781c0 2.972656 2.410156 5.386719 5.386718 5.386719h51.421875c2.976563 0 5.386719-2.414063 5.386719-5.386719v-51.425781c0-2.972657-2.410156-5.386719-5.386719-5.386719zm0 0" fill="#55c9ff" transform="matrix(1.3333333333333333, 0, 0, 1.3333333333333333, 0, 0)"></path><path d="m422.09375 83.75h-51.425781c-2.972657 0-5.386719 2.414062-5.386719 5.386719v51.425781c0 2.972656 2.414062 5.386719 5.386719 5.386719h51.425781c2.972656 0 5.386719-2.414063 5.386719-5.386719v-51.425781c0-2.972657-2.414063-5.386719-5.386719-5.386719zm0 0" fill="#88c116" transform="matrix(1.3333333333333333, 0, 0, 1.3333333333333333, 0, 0)"></path><path d="m300.277344 46.011719v-42.183594c-10.175782-1.773437-20.550782-2.960937-31.101563-3.496094v45.679688c0 2.972656 2.414063 5.382812 5.386719 5.382812h31.101562c-2.976562.003907-5.386718-2.410156-5.386718-5.382812zm0 0" fill="#e9932a" transform="matrix(1.3333333333333333, 0, 0, 1.3333333333333333, 0, 0)"></path><path d="m300.277344 140.5625v-51.425781c0-2.972657 2.410156-5.382813 5.386718-5.382813h-31.101562c-2.972656 0-5.386719 2.410156-5.386719 5.382813v51.425781c0 2.972656 2.414063 5.386719 5.386719 5.386719h31.101562c-2.976562 0-5.386718-2.414063-5.386718-5.386719zm0 0" fill="#44a3ea" transform="matrix(1.3333333333333333, 0, 0, 1.3333333333333333, 0, 0)"></path><path d="m396.382812 140.5625v-51.425781c0-2.972657 2.410157-5.382813 5.386719-5.382813h-31.101562c-2.972657 0-5.386719 2.410156-5.386719 5.382813v51.425781c0 2.972656 2.414062 5.386719 5.386719 5.386719h31.101562c-2.976562 0-5.386719-2.414063-5.386719-5.386719zm0 0" fill="#519a25" transform="matrix(1.3333333333333333, 0, 0, 1.3333333333333333, 0, 0)"></path><path d="m84.519531 140.5625c0 2.972656 2.414063 5.386719 5.386719 5.386719h140.511719c2.972656 0 5.386719-2.414063 5.386719-5.386719v-86.933594c-5.992188-8.367187-17.640626-20.238281-36.609376-22.609375-2.546874-.320312-4.292968 2.371094-2.808593 4.363281 6.265625 8.402344 15.597656 26.265626-4.078125 40.597657-19.867188 14.472656-51.855469-16.101563-96.757813-19.449219-3.765625 3.03125-7.445312 6.160156-11.03125 9.398438zm0 0" fill="#95e5ff" transform="matrix(1.3333333333333333, 0, 0, 1.3333333333333333, 0, 0)"></path><path d="m116.394531 140.5625v-80.554688c-6.609375-1.667968-13.554687-2.933593-20.84375-3.476562-3.402343 2.742188-7.636719 6.332031-11.03125 9.398438v74.632812c0 2.972656 2.414063 5.386719 5.386719 5.386719h31.875c-2.976562 0-5.386719-2.414063-5.386719-5.386719zm0 0" fill="#55c9ff" transform="matrix(1.3333333333333333, 0, 0, 1.3333333333333333, 0, 0)"></path><path d="m89.90625 145.949219h140.511719c2.972656 0 5.386719-2.414063 5.386719-5.386719v-34.695312c-23.484376 14.4375-59.796876 14.261718-99.808594-1.097657-19.324219-7.417969-36.726563-10.441406-51.476563-11.144531v46.9375c0 2.972656 2.414063 5.386719 5.386719 5.386719zm0 0" fill="#55c9ff" transform="matrix(1.3333333333333333, 0, 0, 1.3333333333333333, 0, 0)"></path><path d="m89.90625 145.949219h31.871094c-2.972656 0-5.382813-2.414063-5.382813-5.386719v-42.058594c-11.605469-2.976562-22.300781-4.421875-31.875-4.875v46.933594c0 2.972656 2.414063 5.386719 5.386719 5.386719zm0 0" fill="#44a3ea" transform="matrix(1.3333333333333333, 0, 0, 1.3333333333333333, 0, 0)"></path><path d="m395.230469 312.980469h6.617187 4.40625c2.238282 0 4.335938 1.09375 5.617188 2.925781 8.683594 12.507812 8.386718 11.804688 8.9375 13.003906v-108.109375c0-8.339843-6.761719-15.097656-15.097656-15.097656h-10.480469zm0 0" fill="#ebdde2" transform="matrix(1.3333333333333333, 0, 0, 1.3333333333333333, 0, 0)"></path><path d="m409.398438 266.832031c4.621093 0 8.734374-2.152343 11.410156-5.503906v67.582031c-.554688-1.210937-.320313-.585937-8.9375-13-1.28125-1.835937-3.378906-2.929687-5.617188-2.929687h-4.40625c-.789062 0-4.640625 0-6.617187 0v-57.285157c1.558593 6.386719 7.300781 11.136719 14.167969 11.136719zm0 0" fill="#dbd1d5" transform="matrix(1.3333333333333333, 0, 0, 1.3333333333333333, 0, 0)"></path><path d="m100.128906 315.90625c1.28125-1.832031 3.378906-2.925781 5.617188-2.925781h4.40625 6.617187v-107.277344h-10.480469c-8.339843 0-15.097656 6.761719-15.097656 15.097656v108.109375c.554688-1.210937.324219-.59375 8.9375-13.003906zm0 0" fill="#ebdde2" transform="matrix(1.3333333333333333, 0, 0, 1.3333333333333333, 0, 0)"></path><path d="m102.601562 266.832031c-4.621093 0-8.734374-2.152343-11.410156-5.503906v67.582031c.554688-1.210937.320313-.585937 8.9375-13 1.28125-1.835937 3.378906-2.929687 5.617188-2.929687h4.40625 6.617187v-57.285157c-1.558593 6.386719-7.300781 11.136719-14.167969 11.136719zm0 0" fill="#dbd1d5" transform="matrix(1.3333333333333333, 0, 0, 1.3333333333333333, 0, 0)"></path><path d="m429.308594 327.921875-27.460938-39.265625c-15.542968 0-276.152344 0-291.695312 0l-27.460938 39.265625c-5.578125 7.980469-8.574218 17.480469-8.574218 27.21875v42.882813h363.761718v-42.882813c0-9.738281-2.992187-19.238281-8.570312-27.21875zm0 0" fill="#55c9ff" transform="matrix(1.3333333333333333, 0, 0, 1.3333333333333333, 0, 0)"></path><path d="m133.210938 327.921875 27.460937-39.265625c-27.15625 0-46.605469 0-50.519531 0l-27.460938 39.265625c-5.578125 7.980469-8.574218 17.480469-8.574218 27.21875v42.882813h50.519531v-42.882813c0-9.738281 2.992187-19.238281 8.574219-27.21875zm0 0" fill="#44a3ea" transform="matrix(1.3333333333333333, 0, 0, 1.3333333333333333, 0, 0)"></path><path d="m383.675781 182.613281h-255.351562c-7.722657 0-13.988281 6.265625-13.988281 13.992188v94.046875h283.328124v-94.046875c0-7.726563-6.265624-13.992188-13.988281-13.992188zm0 0" fill="#514e87" transform="matrix(1.3333333333333333, 0, 0, 1.3333333333333333, 0, 0)"></path><path d="m155.046875 182.613281h-26.722656c-7.726563 0-13.988281 6.265625-13.988281 13.992188v94.046875h26.722656v-94.046875c0-7.726563 6.261718-13.992188 13.988281-13.992188zm0 0" fill="#3e3c76" transform="matrix(1.3333333333333333, 0, 0, 1.3333333333333333, 0, 0)"></path><path d="m74.121094 355.140625v42.882813h363.757812v-42.882813c0-3.027344-.289062-6.03125-.855468-8.976563h-362.046876c-.566406 2.945313-.855468 5.949219-.855468 8.976563zm0 0" fill="#44a3ea" transform="matrix(1.3333333333333333, 0, 0, 1.3333333333333333, 0, 0)"></path><path d="m125.492188 346.164062h-50.515626c-.566406 2.945313-.855468 5.949219-.855468 8.976563v42.882813h50.515625v-42.882813c0-3.027344.289062-6.03125.855469-8.976563zm0 0" fill="#2d86d9" transform="matrix(1.3333333333333333, 0, 0, 1.3333333333333333, 0, 0)"></path><path d="m225.257812 246.292969h-66.445312c-9.914062 0-18.027344 8.113281-18.027344 18.027343v26.332032h102.503906v-26.332032c-.003906-9.914062-8.113281-18.027343-18.03125-18.027343zm0 0" fill="#d1f3fb" transform="matrix(1.3333333333333333, 0, 0, 1.3333333333333333, 0, 0)"></path><path d="m353.1875 246.292969h-66.445312c-9.914063 0-18.027344 8.113281-18.027344 18.027343v26.332032h102.503906v-26.332032c0-9.914062-8.113281-18.027343-18.03125-18.027343zm0 0" fill="#d1f3fb" transform="matrix(1.3333333333333333, 0, 0, 1.3333333333333333, 0, 0)"></path><path d="m184.242188 246.292969h-25.429688c-9.914062 0-18.027344 8.113281-18.027344 18.027343v26.332032h25.429688v-26.332032c0-9.914062 8.113281-18.027343 18.027344-18.027343zm0 0" fill="#95e5ff" transform="matrix(1.3333333333333333, 0, 0, 1.3333333333333333, 0, 0)"></path><path d="m312.175781 246.292969h-25.433593c-9.917969 0-18.027344 8.113281-18.027344 18.027343v26.332032h25.429687v-26.332032c0-9.914062 8.113281-18.027343 18.03125-18.027343zm0 0" fill="#95e5ff" transform="matrix(1.3333333333333333, 0, 0, 1.3333333333333333, 0, 0)"></path><path d="m420.183594 303.46875-8.3125-11.886719c-1.28125-1.832031-3.378906-2.925781-5.617188-2.925781h-300.507812c-2.238282 0-4.335938 1.089844-5.617188 2.925781l-8.3125 11.886719c-3.175781 4.542969.074219 10.785156 5.617188 10.785156h317.132812c5.542969 0 8.792969-6.242187 5.617188-10.785156zm0 0" fill="#95e5ff" transform="matrix(1.3333333333333333, 0, 0, 1.3333333333333333, 0, 0)"></path><path d="m139.917969 303.46875 8.3125-11.886719c1.28125-1.832031 3.378906-2.925781 5.617187-2.925781h-48.101562c-2.234375 0-4.335938 1.09375-5.617188 2.925781l-8.3125 11.886719c-3.175781 4.542969.074219 10.785156 5.617188 10.785156h48.101562c-5.546875 0-8.796875-6.242187-5.617187-10.785156zm0 0" fill="#55c9ff" transform="matrix(1.3333333333333333, 0, 0, 1.3333333333333333, 0, 0)"></path><path d="m420.800781 458.722656-29.121093.65625 19.578124 44.566406c2.976563 6.777344 10.902344 9.914063 17.738282 6.914063 6.808594-2.992187 9.902344-10.933594 6.914062-17.742187zm0 0" fill="#dbd1d5" transform="matrix(1.3333333333333333, 0, 0, 1.3333333333333333, 0, 0)"></path><path d="m91.199219 458.722656 29.121093.65625-19.578124 44.566406c-2.976563 6.777344-10.902344 9.914063-17.738282 6.914063-6.808594-2.992187-9.902344-10.933594-6.914062-17.742187zm0 0" fill="#dbd1d5" transform="matrix(1.3333333333333333, 0, 0, 1.3333333333333333, 0, 0)"></path><path d="m407.9375 483.660156c3.882812-8.839844 15.566406-10.824218 22.152344-3.792968l-9.289063-21.144532-29.121093.65625 13.460937 30.648438zm0 0" fill="#b7b3ba" transform="matrix(1.3333333333333333, 0, 0, 1.3333333333333333, 0, 0)"></path><path d="m104.0625 483.660156 2.792969 6.367188 13.464843-30.648438-29.121093-.65625-9.289063 21.144532c6.605469-7.050782 18.277344-5.027344 22.152344 3.792968zm0 0" fill="#b7b3ba" transform="matrix(1.3333333333333333, 0, 0, 1.3333333333333333, 0, 0)"></path><path d="m434.621094 387.054688h-357.238282c-4.347656 0-7.871093 3.519531-7.871093 7.867187v64.707031c0 4.347656 3.523437 7.867188 7.871093 7.867188h357.238282c4.34375 0 7.867187-3.519532 7.867187-7.867188v-64.707031c0-4.347656-3.523437-7.867187-7.867187-7.867187zm0 0" fill="#514e87" transform="matrix(1.3333333333333333, 0, 0, 1.3333333333333333, 0, 0)"></path><path d="m116.769531 459.632812v-64.710937c0-4.347656 3.523438-7.867187 7.867188-7.867187h-47.253907c-4.347656 0-7.871093 3.523437-7.871093 7.867187v64.710937c0 4.34375 3.523437 7.867188 7.871093 7.867188h47.253907c-4.34375 0-7.867188-3.523438-7.867188-7.867188zm0 0" fill="#3e3c76" transform="matrix(1.3333333333333333, 0, 0, 1.3333333333333333, 0, 0)"></path></g></svg>