<svg xmlns="http://www.w3.org/2000/svg" viewBox="0 0 512 512" style=""><rect data-fl-background="" x="0" y="0" width="512" height="512" fill="transparent"></rect><g transform="matrix(0.9999999962747097, 0, 0, 0.9999999962747097, 0, 0)"><path d="m512 256c0 44.72-11.47 86.76-31.63 123.34-43.55 79.08-127.71 132.66-224.37 132.66-96.6 0-180.7-53.51-224.28-132.5-20.22-36.62-31.72-78.72-31.72-123.5 0-141.38 114.62-256 256-256s256 114.62 256 256z" fill="#aed2fd" transform="matrix(1, 0, 0, 1, 0, 0)"></path><path d="m512 256c0 87.11-43.52 164.07-110 210.31-41.41 28.8-91.73 45.69-146 45.69s-104.59-16.89-146-45.69c-66.48-46.24-110-123.2-110-210.31 0-46.22 12.25-89.57 33.68-127 44.12 77.07 127.16 129 222.32 129s178.21-51.93 222.32-129c21.43 37.43 33.68 80.78 33.68 127z" fill="#8cb3ff" transform="matrix(1, 0, 0, 1, 0, 0)"></path><path fill="#a63917" transform="matrix(1, 0, 0, 1, 0, 0)" data-type="circle" data-cx="487.343" data-cy="290.305" data-r="9.522" d="M487.343,290.305m-9.522,0a9.522,9.522 0 1, 0 19.044,0a9.522,9.522 0 1, 0 -19.044,0"></path><path d="m437.28 436.76c-14.3 14.33-30.27 26.98-47.62 37.62-35.99 22.07-77.85 35.5-122.7 37.39-3.63.15-7.29.23-10.96.23-48.98 0-94.75-13.76-133.65-37.62-17.35-10.64-33.33-23.29-47.63-37.62z" fill="#4e689b" transform="matrix(1, 0, 0, 1, 0, 0)"></path><path d="m437.28 436.76c-43.95 44.07-103.86 72.21-170.32 75.01-3.63.15-7.29.23-10.96.23v-75.24z" fill="#374c81" transform="matrix(1, 0, 0, 1, 0, 0)"></path><path d="m197.513 436.76c-9.056 0-16.397-7.341-16.397-16.397v-58.299h32.793v58.299c.001 9.056-7.34 16.397-16.396 16.397z" fill="#374c81" transform="matrix(1, 0, 0, 1, 0, 0)"></path><path d="m486.88 362.06v4.62c-.92 1.93-1.87 3.85-2.85 5.75-1.18 2.33-2.4 4.63-3.66 6.91-3.79 6.89-7.9 13.59-12.3 20.07-4.38 6.47-9.05 12.73-13.99 18.76v-56.11z" fill="#234177" transform="matrix(1, 0, 0, 1, 0, 0)"></path><path d="m510.61 282.7c-2.26 21.98-7.33 43.14-14.82 63.11-2.06 5.51-4.31 10.93-6.75 16.25h-307.92v-124.47c0-19.43 15.75-35.19 35.19-35.19h75.68c17.27 0 33.36 7.8 44.05 20.83 2.52 3.06 4.74 6.42 6.6 10.03 9.78 18.95 29.33 30.85 50.65 30.85h91.55c12 0 22.18 7.79 25.77 18.59z" fill="#c55733" transform="matrix(1, 0, 0, 1, 0, 0)"></path><path d="m510.61 282.7c-2.26 21.98-7.33 43.14-14.82 63.11-2.06 5.51-4.31 10.93-6.75 16.25h-153v-138.83c2.52 3.06 4.74 6.42 6.6 10.03 9.78 18.95 29.33 30.85 50.65 30.85h91.55c.41 0 .82.01 1.23.03h.04c11.44.53 21.04 8.14 24.5 18.56z" fill="#a63917" transform="matrix(1, 0, 0, 1, 0, 0)"></path><path d="m184.733 264.113c-13.618 0-24.657 11.039-24.657 24.657v76.653h49.314v-76.653c0-13.618-11.039-24.657-24.657-24.657z" fill="#ec781b" transform="matrix(1, 0, 0, 1, 0, 0)"></path><path d="m510.61 282.7c-2.26 21.98-7.33 43.14-14.82 63.11-2.06 5.51-4.31 10.93-6.75 16.25h-26.35v-73.29c0-13.19 10.36-23.97 23.38-24.63h.04c11.44.53 21.04 8.14 24.5 18.56z" fill="#c55733" transform="matrix(1, 0, 0, 1, 0, 0)"></path><path d="m495.79 345.81c-3.42 9.13-7.35 18.02-11.76 26.62-1.18 2.33-2.4 4.63-3.66 6.91-3.79 6.89-7.9 13.59-12.3 20.07h-277.74c-15.6 0-28.44-11.81-30.07-26.98-.12-1.08-.18-2.17-.18-3.28v-3.73c0-11.03 8.94-19.96 19.96-19.96h312c1.28 0 2.54.12 3.75.35z" fill="#ec781b" transform="matrix(1, 0, 0, 1, 0, 0)"></path><path d="m495.79 345.81c-4.34 11.6-9.51 22.8-15.42 33.53-3.79 6.89-7.9 13.59-12.3 20.07h-132.03v-53.95h156c1.28 0 2.54.12 3.75.35z" fill="#c55733" transform="matrix(1, 0, 0, 1, 0, 0)"></path><path d="m282.687 308.811c0 8.231-.532 16.177-1.542 23.683-.798 5.955-5.469 10.626-11.424 11.424-7.497 1-15.452 1.542-23.683 1.542s-16.186-.542-23.683-1.542c-5.955-.798-10.626-5.469-11.424-11.424-1.009-7.506-1.541-15.452-1.541-23.683 0-8.24.532-16.186 1.541-23.683.798-5.955 5.469-10.635 11.424-11.424 7.497-1.009 15.452-1.551 23.683-1.551s16.186.541 23.683 1.551c5.955.789 10.626 5.469 11.424 11.424 1.01 7.497 1.542 15.444 1.542 23.683z" fill="#ffe853" transform="matrix(1, 0, 0, 1, 0, 0)"></path><path d="m282.687 308.811c0 8.231-.532 16.177-1.542 23.683-.798 5.955-5.469 10.626-11.424 11.424-7.497 1-15.452 1.542-23.683 1.542v-73.306c8.231 0 16.186.541 23.683 1.551 5.955.789 10.626 5.469 11.424 11.424 1.01 7.496 1.542 15.443 1.542 23.682z" fill="#fed110" transform="matrix(1, 0, 0, 1, 0, 0)"></path><path d="m372.689 308.811c0 8.231-.532 16.177-1.542 23.683-.798 5.955-5.469 10.626-11.424 11.424-7.497 1-15.452 1.542-23.683 1.542s-16.186-.542-23.683-1.542c-5.955-.798-10.626-5.469-11.424-11.424-1.009-7.506-1.542-15.452-1.542-23.683 0-8.24.532-16.186 1.542-23.683.798-5.955 5.469-10.635 11.424-11.424 7.497-1.009 15.452-1.551 23.683-1.551s16.186.541 23.683 1.551c5.955.789 10.626 5.469 11.424 11.424 1.009 7.497 1.542 15.444 1.542 23.683z" fill="#fed110" transform="matrix(1, 0, 0, 1, 0, 0)"></path><path d="m372.689 308.811c0 8.231-.532 16.177-1.542 23.683-.798 5.955-5.469 10.626-11.424 11.424-7.497 1-15.452 1.542-23.683 1.542v-73.306c8.231 0 16.186.541 23.683 1.551 5.955.789 10.626 5.469 11.424 11.424 1.009 7.496 1.542 15.443 1.542 23.682z" fill="#ff9f00" transform="matrix(1, 0, 0, 1, 0, 0)"></path><path d="m484.03 372.43c-1.18 2.33-2.4 4.63-3.66 6.91-3.79 6.89-7.9 13.59-12.3 20.07h-277.74c-15.6 0-28.44-11.81-30.07-26.98z" fill="#c55733" transform="matrix(1, 0, 0, 1, 0, 0)"></path><path d="m484.03 372.43c-1.18 2.33-2.4 4.63-3.66 6.91-3.79 6.89-7.9 13.59-12.3 20.07h-132.03v-26.98z" fill="#a63917" transform="matrix(1, 0, 0, 1, 0, 0)"></path><path fill="#c55733" transform="matrix(1, 0, 0, 1, 0, 0)" data-type="circle" data-cx="184.733" data-cy="290.305" data-r="9.522" d="M184.733,290.305m-9.522,0a9.522,9.522 0 1, 0 19.044,0a9.522,9.522 0 1, 0 -19.044,0"></path><path d="m87.574 159.39h21.241v277.37h-21.241z" fill="#4e689b" transform="matrix(1, 0, 0, 1, 0, 0)"></path><path d="m98.188 159.39h10.628v277.37h-10.628z" fill="#374c81" transform="matrix(1, 0, 0, 1, 0, 0)"></path><path d="m87.574 159.39h10.613v64.94h-10.613z" fill="#374c81" transform="matrix(1, 0, 0, 1, 0, 0)"></path><path d="m98.188 159.39h10.628v64.94h-10.628z" fill="#234177" transform="matrix(1, 0, 0, 1, 0, 0)"></path><path d="m160.26 199.85h-124.14l5.23-20.91 15.56-62.28c2.09-8.34 9.58-14.18 18.16-14.18h46.24c2.42 0 4.74.47 6.89 1.31.72.29 1.41.61 2.08.98 2.91 1.58 5.37 3.93 7.09 6.81.4.67.75 1.36 1.07 2.08.11.23.21.48.3.72.29.74.53 1.5.73 2.28l15.56 62.28z" fill="#ffe853" transform="matrix(1, 0, 0, 1, 0, 0)"></path><path d="m160.26 199.85h-92.13l2.42-20.91 6.94-59.9c.41-3.56 1.72-7 4-9.76 3.48-4.2 8.71-6.8 14.44-6.8h25.38c2.42 0 4.74.47 6.89 1.31.72.29 1.41.61 2.08.98 2.91 1.58 5.37 3.93 7.09 6.81.4.67.75 1.36 1.07 2.08.11.23.21.48.3.72.29.74.53 1.5.73 2.28z" fill="#fed110" transform="matrix(1, 0, 0, 1, 0, 0)"></path><path d="m160.26 199.85h-62.05l-.02-.01v-97.37h23.12c2.42 0 4.74.47 6.89 1.32.72.28 1.41.61 2.08.98 2.91 1.58 5.37 3.93 7.09 6.81.4.67.75 1.36 1.07 2.08.11.23.21.48.3.72.29.74.53 1.5.73 2.28l15.56 62.28z" fill="#ff9f00" transform="matrix(1, 0, 0, 1, 0, 0)"></path><path d="m149.84 436.76h-75.11c-5.57-5.59-10.88-11.42-15.91-17.5 1.98-.72 4.11-1.11 6.33-1.11h66.08c10.28 0 18.61 8.33 18.61 18.61z" fill="#374c81" transform="matrix(1, 0, 0, 1, 0, 0)"></path><path d="m149.84 436.76h-51.65v-18.61h33.04c10.278 0 18.61 8.332 18.61 18.61z" fill="#234177" transform="matrix(1, 0, 0, 1, 0, 0)"></path><path d="m70.55 178.94-2.42 20.91h-32.01l5.23-20.91z" fill="#fed110" transform="matrix(1, 0, 0, 1, 0, 0)"></path><path d="m98.21 199.85h-30.08l2.42-20.91h27.64v20.9z" fill="#ff9f00" transform="matrix(1, 0, 0, 1, 0, 0)"></path><path d="m160.26 199.85h-62.05l-.02-.01v-20.9h56.84z" fill="#ec781b" transform="matrix(1, 0, 0, 1, 0, 0)"></path></g></svg>